<?xml version="1.0" standalone="no"?>
<!DOCTYPE svg PUBLIC "-//W3C//DTD SVG 20010904//EN"
 "http://www.w3.org/TR/2001/REC-SVG-20010904/DTD/svg10.dtd">
<svg version="1.0" xmlns="http://www.w3.org/2000/svg"
 width="454.000000pt" height="455.000000pt" viewBox="0 0 454.000000 455.000000"
 preserveAspectRatio="xMidYMid meet">

<g transform="translate(0.000000,455.000000) scale(0.100000,-0.100000)"
fill="#000000" stroke="none">
<path d="M1867 4454 c-3 -4 0 -22 8 -41 18 -44 18 -43 0 -43 -22 0 -95 -38
-122 -63 -12 -11 -27 -34 -33 -52 -8 -24 -24 -39 -63 -60 -85 -46 -107 -64
-107 -90 0 -41 40 -134 63 -146 14 -8 56 -10 129 -6 l107 6 26 -33 c14 -18 41
-73 60 -122 29 -73 35 -102 35 -164 1 -125 17 -207 61 -303 31 -67 44 -109 50
-171 5 -44 14 -108 19 -141 6 -33 10 -78 10 -100 0 -38 -3 -42 -35 -54 -50
-18 -95 -76 -95 -124 0 -40 26 -107 41 -107 20 0 7 -18 -35 -47 -41 -29 -44
-30 -70 -14 -14 8 -26 22 -26 31 0 8 -13 22 -28 31 -22 12 -34 35 -60 110 -40
118 -41 163 -5 215 14 21 36 54 49 71 13 20 25 57 29 93 6 52 4 66 -20 115
-35 75 -42 139 -21 202 12 35 14 57 7 74 -13 35 -33 50 -51 39 -8 -6 -32 -10
-53 -10 -22 0 -54 -7 -73 -16 -32 -15 -36 -15 -53 0 -17 16 -19 15 -23 -8 -3
-13 -1 -32 4 -41 15 -25 3 -29 -47 -16 -25 6 -50 9 -55 6 -15 -9 15 -60 66
-110 38 -38 45 -51 42 -78 -3 -32 -4 -32 -70 -39 -36 -4 -102 -19 -145 -33
-43 -14 -125 -30 -183 -36 -78 -7 -119 -17 -160 -36 -73 -35 -161 -42 -210
-15 -48 26 -69 66 -79 151 -5 39 -18 86 -28 103 -35 62 -159 100 -208 65 -16
-13 -14 -15 25 -21 61 -10 136 -53 149 -85 5 -14 11 -55 13 -91 7 -133 67
-187 217 -197 l81 -6 0 -32 c0 -17 11 -54 25 -81 14 -27 25 -58 25 -70 0 -22
-29 -53 -69 -74 -23 -12 -23 -16 -18 -84 4 -39 9 -80 12 -92 6 -20 3 -21 -47
-16 -104 8 -212 -57 -254 -155 -13 -31 -13 -31 -55 -19 -50 15 -65 43 -48 93
14 44 36 54 106 47 71 -6 110 14 137 71 15 32 16 44 7 76 -36 121 -187 162
-356 99 -82 -31 -182 -131 -228 -227 -30 -63 -32 -75 -32 -173 0 -92 4 -112
26 -160 38 -80 91 -135 162 -169 111 -55 233 -51 316 10 l40 28 47 -26 c79
-44 186 -36 267 20 27 19 28 19 45 -3 22 -27 98 -38 132 -20 16 9 25 9 33 1 6
-6 24 -11 39 -11 15 0 28 -2 28 -5 0 -3 -25 -29 -56 -58 l-56 -52 -52 52 c-62
62 -105 75 -163 47 -47 -24 -75 -71 -75 -128 0 -47 23 -100 79 -183 l36 -52
-41 -110 c-65 -174 -72 -269 -24 -325 20 -23 73 -46 104 -46 43 0 157 51 202
91 62 55 77 104 74 245 -3 107 -2 112 26 152 48 70 55 71 49 5 -6 -70 16 -165
51 -221 56 -89 168 -154 301 -173 47 -7 88 -19 100 -30 33 -28 99 -41 145 -29
45 12 110 64 110 87 0 12 7 14 28 9 15 -4 56 -10 91 -13 36 -3 78 -14 95 -24
38 -23 94 -24 144 -3 36 15 38 14 58 -9 30 -36 60 -49 109 -49 78 0 186 63
199 117 5 21 9 22 51 13 51 -11 134 3 173 28 22 14 26 14 58 -11 91 -69 184
-83 271 -40 69 35 116 99 125 175 2 17 8 23 18 20 8 -2 54 -6 103 -8 l87 -3 0
-83 c0 -118 9 -126 143 -126 56 0 107 4 113 8 24 15 34 54 34 126 l0 76 79 0
c44 0 87 3 96 6 31 12 45 60 45 149 0 78 -2 88 -25 110 -22 23 -32 25 -109 25
l-85 0 -3 98 c-3 91 -1 99 23 132 57 78 67 156 29 231 -19 37 -21 48 -11 74
18 51 13 91 -15 125 -68 81 -186 89 -282 21 -36 -26 -42 -28 -53 -15 -10 13
-10 17 0 24 15 9 13 30 -17 142 -12 42 -26 123 -32 179 l-11 103 -55 59 c-30
32 -54 62 -54 68 0 5 31 9 68 9 79 0 115 17 93 44 -12 15 -46 27 -113 41 -34
7 -87 51 -100 84 -6 14 -14 100 -18 191 -9 215 -24 258 -113 331 -34 27 -91
64 -127 82 -59 29 -74 32 -180 36 -63 2 -173 -3 -245 -10 -71 -8 -168 -14
-215 -14 -77 0 -94 4 -190 43 -58 24 -116 53 -129 65 -13 12 -43 63 -66 114
-24 51 -57 111 -73 135 -16 24 -46 75 -66 115 -51 103 -65 113 -151 113 -40 0
-74 -3 -78 -6z m154 -46 c12 -13 33 -48 46 -78 14 -30 44 -84 67 -120 23 -36
57 -99 75 -140 18 -41 40 -83 49 -93 16 -18 15 -20 -3 -34 -49 -36 -244 -123
-278 -123 -7 0 -20 22 -29 48 -10 26 -35 68 -57 91 -36 39 -44 43 -73 37 -67
-14 -165 -18 -184 -8 -11 6 -28 34 -38 63 l-19 52 24 20 c13 10 44 29 69 42
50 26 74 49 85 83 10 34 80 80 132 88 47 7 50 14 29 66 -14 33 74 38 105 6z
m417 -528 c119 -47 174 -50 400 -24 80 9 179 14 238 12 86 -4 110 -9 165 -35
35 -16 90 -51 121 -76 82 -68 98 -117 103 -307 2 -80 9 -163 15 -185 17 -57
77 -113 128 -121 44 -7 58 -24 20 -24 -13 0 -40 5 -62 11 -81 22 -68 -35 32
-140 46 -49 52 -61 52 -98 0 -51 35 -236 55 -294 16 -46 7 -65 -25 -53 -8 3
-27 11 -42 16 -33 12 -36 24 -9 33 27 8 32 30 20 83 -32 130 -108 253 -244
392 -56 58 -112 122 -124 143 -28 47 -47 43 -44 -9 4 -52 43 -128 99 -193 46
-52 47 -54 35 -85 -16 -38 -39 -137 -54 -236 -10 -64 -15 -76 -37 -86 -29 -13
-110 -7 -110 9 0 19 33 47 55 47 32 0 47 23 60 93 9 49 9 74 -2 120 -19 84
-41 120 -142 232 -99 109 -127 156 -137 228 -10 71 -27 81 -110 63 -38 -8
-132 -39 -209 -69 -77 -30 -166 -62 -197 -71 -57 -16 -58 -17 -73 -69 -9 -28
-18 -102 -22 -163 l-6 -112 -38 0 c-37 -1 -39 1 -39 31 0 58 -29 250 -39 260
-16 16 -38 0 -45 -33 -3 -18 -6 -69 -6 -114 0 -44 -3 -98 -6 -118 -6 -35 -9
-38 -40 -38 l-34 0 0 51 c0 27 -5 83 -10 122 -6 40 -15 101 -20 136 -5 35 -24
95 -43 135 -49 100 -57 134 -64 278 l-6 126 44 12 c69 18 161 65 224 115 32
25 61 45 65 45 3 0 52 -18 108 -40z m533 -561 c10 -67 30 -104 104 -189 135
-156 153 -181 170 -243 28 -99 6 -197 -44 -197 -24 0 -71 -51 -71 -77 0 -16
-5 -20 -19 -16 -11 3 -43 -2 -73 -10 -32 -10 -71 -13 -100 -10 -28 3 -60 0
-76 -6 -26 -11 -34 -9 -67 13 -20 14 -52 28 -71 32 -31 6 -34 9 -34 43 0 117
-83 214 -209 244 l-51 12 1 105 c1 111 14 178 39 190 33 17 345 132 394 145
28 8 62 13 76 12 22 -2 26 -8 31 -48z m581 -494 c26 -50 52 -112 59 -138 12
-48 12 -49 -22 -80 -50 -47 -95 -58 -137 -34 -24 14 -45 18 -77 14 -41 -4 -44
-3 -40 17 11 56 25 127 35 186 7 36 20 88 30 115 9 28 15 57 12 65 -3 8 -29
43 -59 77 -29 35 -53 67 -53 71 0 4 47 -40 103 -98 84 -85 112 -122 149 -195z
m-1280 156 c2 -45 -1 -65 -9 -68 -14 -5 -18 72 -7 115 9 33 12 25 16 -47z
m-722 -140 c0 -50 11 -78 46 -116 28 -31 84 -114 84 -125 0 -3 -13 -14 -30
-23 -30 -18 -30 -18 -67 10 -32 25 -45 28 -112 29 -49 1 -90 7 -115 18 -22 10
-60 18 -85 18 -48 0 -121 38 -121 63 0 7 24 27 54 43 29 17 63 43 74 57 18 22
33 28 94 36 40 5 89 14 108 18 66 17 70 15 70 -28z m943 25 c107 -38 161 -111
159 -213 0 -61 0 -63 24 -63 37 0 95 -27 131 -62 l32 -31 21 26 c23 29 66 36
99 15 14 -9 27 -8 60 5 46 19 116 22 126 7 4 -6 21 -8 41 -4 23 4 42 1 58 -9
22 -15 28 -14 75 4 67 25 94 24 127 -4 26 -22 29 -23 71 -9 69 23 141 3 201
-54 51 -49 52 -50 52 -30 0 17 54 64 89 78 41 16 106 13 142 -8 70 -42 85 -98
39 -144 -20 -20 -20 -20 5 -48 80 -86 47 -220 -69 -277 -50 -24 -58 -26 -110
-16 -65 12 -91 24 -127 58 -26 24 -28 24 -53 8 -39 -26 -137 -31 -191 -11 -87
34 -156 148 -143 236 6 39 -3 38 -26 -1 -15 -26 -18 -44 -13 -95 11 -113 -16
-144 -125 -144 -39 0 -54 5 -73 25 -28 27 -32 81 -15 210 5 38 7 72 5 74 -3 2
-23 -14 -45 -36 l-40 -41 0 -88 c-1 -54 -5 -95 -13 -105 -17 -23 -83 -42 -122
-36 -28 5 -34 2 -39 -16 -7 -29 0 -37 34 -37 50 0 71 -64 45 -132 -6 -16 -1
-18 44 -18 110 0 201 -86 217 -204 5 -35 10 -44 25 -43 23 2 23 -2 -3 42 -30
53 -28 116 7 161 32 41 94 73 144 74 63 0 141 -62 141 -114 0 -8 -12 -28 -26
-45 l-25 -30 32 -41 c77 -95 32 -245 -90 -296 -68 -29 -193 9 -234 71 l-21 32
-43 -31 c-69 -48 -170 -48 -253 1 -3 2 -4 -15 -2 -37 5 -47 -12 -71 -68 -100
-51 -26 -105 -34 -138 -21 -29 12 -62 57 -62 85 0 23 -13 20 -40 -9 -46 -49
-128 -56 -165 -15 -14 15 -30 19 -79 18 -53 -1 -91 9 -148 40 -4 2 -10 -12
-13 -31 -4 -19 -20 -48 -37 -64 -25 -24 -37 -28 -88 -28 -50 0 -63 4 -87 28
-23 21 -39 27 -74 27 -61 0 -152 25 -205 56 -62 37 -121 108 -139 167 -62 208
61 416 284 481 61 18 188 21 242 6 81 -23 111 -108 55 -156 -23 -21 -38 -24
-102 -24 -41 0 -89 -6 -107 -14 -37 -15 -97 -79 -97 -102 0 -13 4 -11 18 5 13
17 38 25 107 36 122 20 132 19 166 -14 16 -16 29 -25 29 -21 0 15 75 87 108
104 46 24 107 30 156 16 37 -10 48 -9 76 5 18 9 43 15 55 13 21 -4 22 -2 18
36 -7 57 26 93 95 102 36 4 52 11 55 24 4 15 -4 19 -52 24 -76 9 -129 41 -158
95 -25 48 -30 120 -13 180 5 19 8 36 6 38 -1 2 -16 -2 -33 -7 l-29 -11 8 -72
c11 -88 5 -127 -25 -155 -34 -32 -75 -43 -158 -44 -92 0 -133 18 -156 68 -16
33 -16 39 10 142 29 115 57 253 57 280 0 10 -14 23 -30 31 -41 17 -65 56 -65
102 0 64 49 101 164 124 88 18 265 18 314 1z m-753 -164 c11 -30 20 -60 20
-68 0 -20 -19 -17 -27 4 -3 9 -23 40 -44 67 -38 51 -42 62 -40 105 2 24 3 24
36 -15 19 -22 43 -64 55 -93z m-1021 83 c41 -21 62 -50 68 -92 4 -32 0 -45
-19 -68 -24 -27 -29 -28 -99 -27 -81 2 -109 -12 -130 -65 -21 -56 7 -133 49
-133 9 0 35 -9 58 -19 l40 -18 14 46 c20 66 91 134 158 150 60 15 103 8 154
-25 43 -28 48 -29 48 -11 0 26 40 51 83 52 23 1 54 9 68 19 56 36 130 28 168
-18 12 -14 16 -14 42 -1 59 31 146 6 171 -50 14 -31 17 -31 45 -1 57 60 164
77 240 38 172 -90 173 -354 1 -427 -100 -41 -222 -3 -278 88 l-17 28 -17 -45
c-19 -48 -66 -96 -95 -96 -10 0 -30 9 -44 21 l-27 20 -22 -20 c-28 -27 -72
-27 -99 0 l-21 21 -22 -21 c-41 -39 -101 -20 -126 38 l-12 30 -29 -34 c-65
-74 -199 -87 -283 -28 l-44 31 -24 -25 c-93 -100 -291 -84 -395 30 -74 82
-107 205 -83 308 36 154 157 284 297 319 47 11 148 3 182 -15z m436 -149 l30
-25 -45 -2 c-45 -1 -49 -1 -72 4 -16 3 -26 25 -27 58 -1 42 16 49 52 18 18
-15 46 -39 62 -53z m915 -60 c0 -35 -11 -45 -43 -39 -44 8 -45 12 -17 33 30
23 60 26 60 6z m-20 -95 c0 -9 -3 -26 -6 -39 -6 -22 -8 -21 -24 15 -9 21 -16
41 -14 45 7 12 44 -5 44 -21z m-32 -324 c54 -92 269 -105 358 -22 l35 33 14
-22 c8 -12 35 -35 60 -50 l46 -29 -30 -30 c-17 -16 -33 -43 -36 -61 -9 -43
-44 -56 -139 -49 -65 5 -80 3 -132 -21 -33 -15 -71 -39 -87 -53 -20 -20 -30
-24 -38 -16 -8 8 -5 14 10 23 33 17 61 70 61 114 0 54 -56 111 -120 120 -25 4
-57 9 -72 12 l-28 6 38 37 c20 21 38 39 39 40 0 0 10 -14 21 -32z m-390 -16
c20 -16 54 -35 75 -42 20 -7 37 -16 37 -19 0 -3 -16 -12 -35 -19 -19 -6 -57
-28 -85 -47 -43 -30 -50 -32 -50 -16 0 11 -11 35 -24 55 l-24 35 24 23 c13 12
26 30 30 41 7 23 9 23 52 -11z m1838 -80 c50 -26 153 -30 205 -8 33 13 37 13
62 -7 26 -21 27 -26 27 -114 l0 -92 -90 0 c-85 0 -92 -2 -115 -26 -24 -26 -25
-26 -25 -5 0 70 -84 131 -181 131 -61 0 -123 -31 -163 -82 l-25 -33 -28 27
c-35 32 -77 53 -125 62 -35 6 -38 9 -38 42 0 19 -7 48 -15 64 -15 28 -14 29
20 40 19 6 46 25 59 41 l25 30 15 -29 c43 -84 224 -73 266 15 l15 32 35 -34
c19 -18 53 -43 76 -54z m-1959 -13 c33 -30 31 -82 -5 -139 -16 -24 -61 -84
-100 -134 l-72 -90 0 -128 c0 -148 -9 -177 -68 -228 -79 -68 -189 -88 -239
-45 -26 22 -28 30 -27 93 1 66 12 107 79 283 l18 45 -57 85 c-58 88 -73 131
-61 177 11 48 43 73 91 73 40 0 46 -4 103 -67 l60 -67 56 61 c86 96 173 127
222 81z m2379 -234 c10 -25 10 -36 0 -55 -12 -23 -11 -24 18 -24 26 0 34 -6
51 -42 11 -23 30 -52 43 -65 26 -29 29 -64 5 -76 -22 -10 -184 -9 -200 1 -20
12 -15 51 8 75 31 34 65 123 41 108 -16 -10 -52 34 -52 62 0 60 64 71 86 16z
m116 10 c18 -38 -7 -79 -47 -79 -23 0 -32 6 -39 27 -21 61 60 110 86 52z
m-464 -126 l-3 -32 -17 26 c-17 26 -17 28 0 57 l17 31 3 -25 c2 -13 2 -39 0
-57z m282 31 c22 -40 6 -89 -29 -89 -48 0 -73 93 -28 109 27 10 44 4 57 -20z
m246 -6 c14 -56 -52 -110 -83 -68 -19 28 -16 53 11 80 29 29 63 23 72 -12z"/>
<path d="M2169 2816 c-107 -23 -140 -67 -89 -117 16 -16 38 -29 49 -29 11 0
22 -4 26 -10 8 -13 -19 -173 -54 -313 -16 -66 -27 -127 -24 -136 12 -45 104
-64 198 -40 71 18 75 30 61 180 l-8 86 44 6 c135 19 238 112 238 217 0 73 -52
139 -128 160 -49 13 -243 11 -313 -4z m265 -145 c34 -38 1 -91 -66 -107 -27
-6 -28 -5 -28 37 0 74 8 89 45 89 19 0 39 -8 49 -19z"/>
<path d="M2380 2630 c0 -5 4 -10 9 -10 6 0 13 5 16 10 3 6 -1 10 -9 10 -9 0
-16 -4 -16 -10z"/>
<path d="M2601 2528 c-113 -56 -177 -240 -114 -326 33 -46 79 -63 155 -60 69
4 108 22 132 62 17 27 -16 48 -55 34 -16 -6 -45 -7 -64 -4 -29 6 -36 12 -45
44 -13 49 -1 57 92 66 40 4 83 13 95 22 30 19 30 61 0 104 -45 68 -128 92
-196 58z m101 -75 c18 -17 25 -53 9 -53 -5 0 -23 -3 -40 -6 -26 -5 -31 -3 -31
13 0 19 26 63 37 63 4 0 15 -7 25 -17z"/>
<path d="M3056 2510 c-32 -10 -96 -51 -96 -62 0 -22 -19 -4 -22 20 -2 21 -8
27 -28 27 -34 0 -48 -45 -63 -208 -11 -123 -10 -130 8 -143 22 -17 63 -18 101
-4 26 10 27 12 21 76 -2 36 -1 81 5 100 11 41 61 94 110 117 30 14 48 34 48
52 0 2 -7 11 -16 19 -17 18 -26 18 -68 6z"/>
<path d="M3330 2499 c-13 -6 -39 -21 -57 -34 -36 -28 -48 -31 -40 -11 3 8 -1
22 -8 33 -11 14 -18 16 -32 7 -25 -16 -40 -76 -54 -216 l-11 -122 23 -19 c18
-14 33 -17 63 -13 21 4 43 9 48 12 4 3 8 41 8 84 0 119 22 160 113 206 87 45
40 110 -53 73z"/>
<path d="M3505 2476 c-45 -20 -81 -65 -101 -124 -14 -46 -15 -60 -4 -95 27
-90 89 -140 174 -140 60 0 103 20 140 63 33 39 40 67 34 135 -11 127 -135 209
-243 161z m173 -89 c27 -57 -9 -113 -57 -88 -27 15 -46 74 -31 101 17 32 71
24 88 -13z"/>
<path d="M3880 2479 c-46 -18 -80 -60 -80 -96 0 -27 10 -45 50 -87 28 -29 50
-61 50 -71 0 -18 -8 -18 -82 1 -37 9 -78 -18 -78 -51 0 -31 29 -61 83 -86 86
-38 170 -11 208 69 35 72 11 121 -95 195 -14 10 -26 27 -26 39 0 19 4 20 49
14 84 -11 94 37 14 71 -37 15 -58 16 -93 2z"/>
<path d="M2779 2306 c-2 -3 -30 -6 -62 -7 -32 -1 -61 -7 -64 -12 -4 -6 17 -7
56 -3 43 5 67 3 77 -5 11 -9 14 -7 14 10 0 19 -10 27 -21 17z"/>
<path d="M2719 2114 c-8 -9 -21 -37 -29 -63 -15 -46 -15 -46 -66 -51 -56 -6
-84 -23 -84 -51 0 -18 8 -22 68 -34 29 -6 33 -10 28 -28 -3 -12 -15 -67 -27
-122 -36 -173 -13 -422 40 -427 41 -3 77 6 114 29 43 27 42 21 13 123 -35 122
-42 316 -15 387 7 20 15 23 58 23 56 0 74 15 69 57 -3 26 -7 28 -50 31 l-46 3
5 54 c6 61 -5 85 -42 85 -12 0 -29 -7 -36 -16z"/>
<path d="M1805 2014 c-108 -26 -209 -105 -256 -200 -20 -40 -24 -64 -24 -134
0 -75 3 -91 28 -132 56 -96 161 -150 293 -152 46 -1 74 -5 74 -12 0 -20 39
-47 73 -50 47 -6 87 26 87 69 0 18 -9 105 -22 195 -17 127 -25 165 -38 172
-10 6 -49 3 -101 -6 -108 -18 -111 -20 -107 -46 2 -19 9 -23 36 -23 l32 0 0
-57 0 -58 -44 0 c-37 0 -48 5 -70 30 -58 70 -54 181 9 244 51 51 100 70 193
74 67 3 84 7 92 22 7 13 5 24 -8 40 -32 40 -138 50 -247 24z"/>
<path d="M2544 1825 c6 -30 13 -55 17 -55 7 0 23 90 17 95 -2 1 -12 5 -23 9
-20 6 -20 4 -11 -49z"/>
<path d="M3315 1855 c-104 -37 -113 -126 -21 -214 57 -55 46 -95 -18 -64 -46
21 -86 9 -100 -29 -14 -39 9 -75 66 -104 80 -40 147 -28 201 36 60 71 37 164
-55 224 -32 21 -48 38 -48 53 0 27 16 32 59 19 28 -8 35 -7 47 8 18 25 0 51
-49 71 -20 8 -38 15 -40 15 -1 -1 -20 -7 -42 -15z"/>
<path d="M2429 1836 c-22 -25 -23 -25 -42 -8 -14 13 -36 17 -86 17 -88 0 -135
-30 -180 -115 -51 -96 -40 -190 30 -257 55 -51 122 -67 186 -42 19 7 29 7 31
0 18 -55 80 -70 125 -31 41 36 48 77 36 214 -15 177 -29 240 -56 244 -14 2
-30 -6 -44 -22z m-185 -122 c21 -21 20 -52 -3 -91 -27 -43 -59 -52 -83 -23
-25 31 -23 63 8 99 28 34 54 39 78 15z"/>
<path d="M2190 1660 c-7 -13 -7 -20 -1 -20 6 0 15 9 21 20 7 13 7 20 1 20 -6
0 -15 -9 -21 -20z"/>
<path d="M2790 1823 l0 -26 25 23 c14 13 25 25 25 27 0 2 -11 3 -25 3 -20 0
-25 -5 -25 -27z"/>
<path d="M2895 1823 c-46 -24 -66 -45 -86 -88 -29 -62 -25 -133 10 -186 41
-62 82 -84 154 -82 103 2 177 79 177 183 0 32 -35 108 -63 138 -47 50 -134 66
-192 35z m159 -68 c30 -28 35 -75 10 -99 -29 -30 -61 -11 -84 48 -8 23 -7 34
5 52 20 30 35 30 69 -1z"/>
<path d="M3020 1710 c0 -5 5 -10 11 -10 5 0 7 5 4 10 -3 6 -8 10 -11 10 -2 0
-4 -4 -4 -10z"/>
<path d="M1793 1647 c8 -12 22 -23 31 -25 27 -6 18 16 -15 32 l-31 16 15 -23z"/>
<path d="M512 2741 c-180 -62 -285 -288 -210 -452 33 -72 67 -110 121 -137 93
-46 203 -37 259 21 62 65 22 139 -96 181 -46 16 -65 29 -79 53 -41 71 -16 173
54 221 30 21 42 23 96 18 48 -5 64 -3 77 10 20 19 20 34 1 61 -31 44 -134 55
-223 24z"/>
<path d="M1243 2560 c-12 -5 -30 -21 -39 -36 -16 -23 -19 -24 -29 -10 -24 32
-85 6 -85 -37 0 -41 52 -273 66 -294 8 -13 23 -23 34 -23 32 0 43 35 35 119
-6 67 -4 80 12 100 17 21 22 22 43 11 22 -12 23 -15 17 -110 -6 -101 -1 -120
35 -120 28 0 45 39 51 117 6 78 19 113 43 113 23 0 28 -27 18 -112 -11 -92 -4
-121 28 -116 49 7 112 208 94 301 -14 77 -99 105 -153 50 -20 -19 -28 -22 -32
-12 -2 8 -17 26 -32 41 -28 29 -64 35 -106 18z"/>
<path d="M1720 2524 c-71 -31 -110 -92 -110 -174 0 -122 105 -209 217 -181
124 32 173 151 113 271 -22 44 -45 65 -93 85 -45 19 -82 19 -127 -1z m160 -74
c22 -22 26 -60 10 -91 -25 -46 -90 -2 -90 61 0 20 3 40 7 43 13 14 54 6 73
-13z"/>
<path d="M1840 2411 c0 -5 5 -13 10 -16 6 -3 10 -2 10 4 0 5 -4 13 -10 16 -5
3 -10 2 -10 -4z"/>
<path d="M840 2505 c-71 -33 -110 -94 -110 -175 0 -92 49 -155 139 -180 85
-23 164 19 203 108 34 77 3 179 -73 233 -40 28 -112 35 -159 14z m164 -77 c29
-41 14 -108 -24 -108 -39 0 -80 96 -53 123 15 16 62 6 77 -15z"/>
<path d="M1372 1990 c-23 -16 -65 -59 -93 -95 -29 -37 -55 -63 -59 -58 -4 4
-28 36 -54 71 -73 97 -116 114 -146 58 -18 -34 0 -80 67 -173 l55 -78 -22 -60
c-92 -245 -104 -312 -65 -341 26 -19 74 -11 139 24 84 46 90 61 94 225 4 159
-1 146 103 270 67 80 105 147 96 170 -11 28 -68 21 -115 -13z"/>
<path d="M46 1279 c-10 -30 -26 -122 -22 -126 11 -11 76 -15 76 -4 0 6 -11 11
-25 11 -20 0 -25 5 -25 24 0 20 6 25 33 28 l32 4 -27 12 c-37 15 -36 32 2 32
17 0 30 5 30 10 0 6 -6 10 -12 10 -7 0 -23 3 -35 6 -15 4 -24 1 -27 -7z"/>
<path d="M140 1218 c-6 -29 -13 -61 -15 -70 -2 -10 3 -18 10 -18 7 0 15 17 18
38 4 20 9 52 13 70 11 55 -13 36 -26 -20z"/>
<path d="M4317 1260 c-10 -26 9 -126 26 -137 6 -4 8 10 5 41 -4 28 -2 46 5 46
5 0 3 8 -5 18 -9 9 -18 24 -21 32 -4 13 -5 13 -10 0z"/>
<path d="M4431 1241 c-19 -3 -38 -13 -44 -22 -14 -23 0 -69 24 -78 24 -8 89 9
89 24 0 22 -21 85 -28 84 -4 -1 -22 -4 -41 -8z m32 -32 c15 -24 1 -49 -27 -49
-29 0 -44 33 -25 56 15 18 38 15 52 -7z"/>
<path d="M244 1165 c-4 -27 -2 -51 3 -56 7 -7 12 3 17 29 6 38 27 59 47 46 6
-3 7 -25 3 -50 -8 -55 10 -60 23 -6 7 28 14 38 32 40 23 4 23 2 16 -43 -5 -37
-4 -46 7 -43 8 3 13 22 13 54 0 48 -1 49 -30 49 -16 0 -34 3 -40 6 -5 4 -27 9
-47 13 l-37 7 -7 -46z"/>
<path d="M4200 1190 c-24 -24 -25 -38 -4 -68 17 -24 62 -30 82 -10 17 17 15
64 -4 82 -21 22 -50 20 -74 -4z m58 -9 c8 -4 12 -19 10 -32 -5 -36 -54 -40
-60 -5 -7 38 19 57 50 37z"/>
<path d="M590 1185 c0 -8 5 -15 10 -15 6 0 10 7 10 15 0 8 -4 15 -10 15 -5 0
-10 -7 -10 -15z"/>
<path d="M4080 1177 c-37 -18 -40 -70 -5 -93 21 -13 31 -15 50 -6 14 7 25 16
25 22 0 6 -9 5 -25 -2 -29 -13 -55 3 -55 33 0 22 32 41 54 33 9 -3 16 -2 16 4
0 5 -7 13 -16 16 -19 7 -14 8 -44 -7z"/>
<path d="M457 1156 c-43 -33 10 -113 59 -91 16 7 14 9 -15 14 -53 9 -53 33 0
30 49 -4 61 11 33 42 -20 22 -51 24 -77 5z m68 -17 c4 -6 5 -13 2 -15 -7 -8
-57 7 -57 17 0 13 47 11 55 -2z"/>
<path d="M3957 1153 c-15 -14 -6 -33 23 -48 32 -17 32 -40 -1 -30 -22 7 -26
-10 -4 -19 20 -7 42 2 49 21 8 20 -1 32 -32 45 -26 11 -26 12 -4 15 12 3 22 9
22 14 0 10 -43 12 -53 2z"/>
<path d="M576 1090 c-5 -43 -11 -60 -21 -60 -8 0 -15 -5 -15 -11 0 -6 10 -9
22 -7 16 2 24 12 29 38 18 97 19 100 5 100 -9 0 -16 -20 -20 -60z"/>
<path d="M3848 1141 c-16 -5 -37 -32 -38 -47 0 -7 8 -22 18 -34 16 -19 24 -21
61 -15 42 7 42 7 37 43 -3 21 -5 42 -6 48 0 11 -45 14 -72 5z m50 -49 c3 -31
2 -33 -25 -30 -21 2 -29 9 -31 27 -4 25 13 43 38 38 9 -1 16 -15 18 -35z"/>
<path d="M648 1129 c-24 -13 -23 -61 0 -82 24 -22 55 -21 75 1 47 52 -14 117
-75 81z m67 -30 c14 -42 -45 -66 -61 -24 -10 25 4 45 30 45 16 0 27 -7 31 -21z"/>
<path d="M1049 1135 c-13 -19 -22 -145 -11 -145 6 0 14 15 17 33 8 40 3 126
-6 112z"/>
<path d="M766 1106 c-9 -32 -7 -86 3 -86 5 0 11 18 15 40 3 21 13 43 22 48 14
8 12 10 -9 14 -20 4 -27 0 -31 -16z"/>
<path d="M1092 1119 c2 -6 8 -10 13 -10 5 0 11 4 13 10 2 6 -4 11 -13 11 -9 0
-15 -5 -13 -11z"/>
<path d="M3726 1123 c-4 -4 -30 -9 -58 -10 -27 -1 -51 -3 -53 -5 -1 -2 0 -23
4 -47 8 -60 31 -67 28 -10 -2 34 2 44 16 47 17 4 21 -2 31 -50 9 -41 30 -36
23 5 -11 66 35 79 47 13 4 -19 11 -38 16 -41 13 -8 13 61 0 86 -11 19 -40 26
-54 12z"/>
<path d="M3366 1106 c3 -8 0 -17 -6 -21 -7 -4 -8 -11 -2 -18 5 -7 12 -29 16
-49 9 -52 30 -50 23 2 -3 22 -1 42 3 45 11 7 -12 55 -27 55 -7 0 -10 -6 -7
-14z"/>
<path d="M910 1090 c-11 -11 -20 -28 -20 -38 0 -25 33 -54 57 -51 10 2 24 0
31 -5 18 -11 18 -9 25 53 6 49 5 53 -13 48 -11 -3 -23 -1 -26 4 -9 15 -33 10
-54 -11z m58 -9 c8 -4 12 -19 10 -32 -2 -17 -10 -25 -29 -27 -31 -4 -44 19
-29 49 11 20 27 24 48 10z"/>
<path d="M1370 1079 c0 -17 -4 -20 -24 -15 -53 13 -90 -36 -61 -80 21 -32 90
-32 99 0 10 35 7 116 -4 116 -5 0 -10 -9 -10 -21z m-15 -64 c0 -25 -4 -30 -25
-30 -16 0 -26 6 -28 18 -6 30 6 49 30 45 18 -2 23 -9 23 -33z"/>
<path d="M3110 1076 c0 -19 -4 -22 -23 -19 -46 9 -74 -50 -44 -91 9 -13 23
-16 52 -13 35 4 40 7 43 32 5 40 -7 115 -19 115 -5 0 -9 -11 -9 -24z m3 -58
c8 -12 7 -21 -2 -32 -29 -35 -69 -8 -55 36 7 23 42 21 57 -4z"/>
<path d="M3500 1055 c0 -37 -3 -45 -19 -45 -14 0 -20 10 -25 40 -7 47 -26 54
-26 9 0 -46 16 -69 50 -69 37 0 53 28 44 75 -9 50 -24 43 -24 -10z"/>
<path d="M1085 1039 c-7 -48 -2 -70 11 -56 4 4 9 29 12 57 6 67 -14 66 -23 -1z"/>
<path d="M2910 1064 c0 -21 -4 -25 -19 -21 -32 8 -63 -20 -59 -55 4 -43 35
-62 71 -43 15 8 25 10 22 5 -4 -6 -1 -10 4 -10 12 0 15 90 5 128 -9 30 -24 28
-24 -4z m-6 -47 c28 -21 12 -59 -22 -55 -30 3 -41 30 -22 53 15 18 21 19 44 2z"/>
<path d="M1146 1059 c-20 -29 -20 -40 -2 -64 9 -12 28 -19 54 -21 l40 -2 7 45
c3 25 5 46 3 48 -2 2 -22 7 -45 11 -35 5 -43 3 -57 -17z m72 -37 c-2 -21 -8
-27 -28 -27 -18 0 -26 6 -28 23 -5 34 15 54 40 41 13 -7 18 -19 16 -37z"/>
<path d="M2650 1005 c0 -43 4 -75 10 -75 6 0 10 32 10 75 0 43 -4 75 -10 75
-6 0 -10 -32 -10 -75z"/>
<path d="M2160 995 c0 -41 4 -75 9 -75 13 0 18 19 20 88 2 51 0 62 -13 62 -13
0 -16 -13 -16 -75z"/>
<path d="M3187 1052 c-10 -10 -17 -28 -17 -39 0 -42 63 -70 89 -39 9 11 4 13
-25 12 -22 -1 -39 4 -41 12 -3 8 9 12 41 12 50 0 60 15 30 44 -21 21 -57 20
-77 -2z m73 -17 c0 -3 -17 -5 -37 -5 -35 1 -37 2 -19 15 13 10 24 11 37 4 11
-5 19 -12 19 -14z"/>
<path d="M1433 1036 c-27 -24 -27 -26 -13 -53 22 -39 72 -44 95 -9 21 31 13
59 -21 74 -32 15 -28 16 -61 -12z m55 -5 c8 -4 12 -19 10 -32 -2 -18 -9 -24
-28 -24 -19 0 -26 6 -28 24 -3 20 11 41 28 41 3 0 11 -4 18 -9z"/>
<path d="M1616 1003 c-9 -57 -7 -103 4 -103 6 0 10 8 10 18 0 26 11 34 27 20
19 -15 62 8 69 38 10 41 -12 64 -60 64 -42 0 -44 -1 -50 -37z m84 -7 c0 -13
-6 -29 -14 -35 -22 -18 -46 -2 -46 30 0 26 4 29 30 29 25 0 30 -4 30 -24z"/>
<path d="M1767 1022 c-38 -42 -7 -93 56 -90 l37 1 0 47 c0 45 -2 48 -31 54
-43 8 -44 8 -62 -12z m61 -11 c8 -4 12 -19 10 -32 -4 -33 -53 -40 -61 -9 -3
11 1 27 10 35 17 17 23 18 41 6z"/>
<path d="M2705 994 c7 -52 17 -64 51 -64 31 0 44 20 44 67 0 32 -4 43 -15 43
-11 0 -15 -12 -15 -45 0 -38 -3 -45 -19 -45 -16 0 -20 8 -23 42 -2 24 -9 43
-17 46 -11 4 -12 -5 -6 -44z"/>
<path d="M1890 980 c0 -27 5 -50 10 -50 6 0 10 12 10 28 0 15 7 38 16 50 14
21 14 22 -10 22 -24 0 -26 -3 -26 -50z"/>
<path d="M1976 1012 c-37 -42 -11 -85 55 -88 l39 -2 0 52 0 53 -39 1 c-26 1
-43 -4 -55 -16z m72 -31 c6 -39 -39 -56 -58 -22 -15 30 -2 53 29 49 19 -2 27
-10 29 -27z"/>
<path d="M2225 1007 c-32 -46 -5 -87 58 -84 l37 2 0 50 0 51 -40 1 c-30 2 -43
-3 -55 -20z m70 -32 c0 -25 -4 -30 -25 -30 -16 0 -26 6 -28 18 -6 30 6 49 30
45 18 -2 23 -9 23 -33z"/>
<path d="M2419 1014 c-12 -14 -10 -19 14 -38 32 -26 35 -40 7 -33 -21 5 -28
-7 -10 -18 18 -11 50 6 50 26 0 10 -9 24 -20 31 -23 15 -27 30 -6 26 8 -2 16
2 18 7 5 17 -38 17 -53 -1z"/>
<path d="M2520 1011 c-27 -52 4 -94 63 -84 37 6 37 6 37 54 l0 49 -45 0 c-34
0 -47 -5 -55 -19z m74 -17 c7 -19 -10 -54 -27 -54 -35 0 -50 52 -20 68 20 12
39 6 47 -14z"/>
</g>
</svg>
