<?xml version="1.0" standalone="no"?>
<!DOCTYPE svg PUBLIC "-//W3C//DTD SVG 20010904//EN"
 "http://www.w3.org/TR/2001/REC-SVG-20010904/DTD/svg10.dtd">
<svg version="1.0" xmlns="http://www.w3.org/2000/svg"
 width="500.000000pt" height="500.000000pt" viewBox="0 0 500.000000 500.000000"
 preserveAspectRatio="xMidYMid meet">

<g transform="translate(0.000000,500.000000) scale(0.100000,-0.100000)"
fill="#000000" stroke="none">
<path d="M2265 4506 c-13 -29 -34 -87 -45 -127 -12 -41 -53 -130 -91 -199
-101 -185 -129 -251 -144 -336 -12 -70 -17 -81 -52 -111 -136 -119 -302 -150
-489 -92 -143 44 -213 100 -277 219 -39 72 -83 188 -75 196 3 3 26 -9 51 -26
125 -84 201 -91 313 -30 71 39 73 39 108 25 23 -10 50 -13 74 -9 32 5 47 1 85
-24 56 -35 49 -41 -56 -43 -71 -2 -72 -2 -22 -9 50 -7 152 5 170 21 5 6 3 9
-5 9 -8 0 -44 18 -78 39 -55 33 -68 38 -94 30 -19 -5 -46 -4 -73 3 -42 11 -46
10 -107 -28 -85 -53 -136 -53 -240 -1 -115 57 -143 85 -157 157 -14 70 -25 81
-15 15 3 -25 4 -45 0 -45 -8 0 -47 77 -57 113 -8 30 -3 57 12 57 5 0 16 -15
24 -32 11 -24 13 -26 9 -8 -14 59 -64 66 -64 10 0 -37 22 -92 57 -142 14 -21
45 -92 68 -158 73 -204 128 -275 255 -327 81 -34 206 -63 268 -63 109 0 225
41 309 110 l47 40 17 -133 c9 -72 19 -187 22 -254 6 -117 5 -123 -13 -123 -11
0 -47 -9 -79 -20 l-59 -21 -88 91 c-94 98 -192 170 -230 170 -42 0 -46 -28
-24 -162 12 -68 30 -141 41 -163 10 -22 16 -31 14 -19 -11 45 -45 261 -45 287
0 38 32 36 96 -7 50 -34 185 -153 215 -190 17 -20 18 -20 68 -2 32 11 83 19
131 20 73 1 82 4 110 31 161 155 209 190 232 167 12 -12 -7 -138 -24 -159 -7
-8 -7 -13 0 -13 19 0 31 26 42 92 12 70 4 108 -24 108 -20 0 -95 -55 -186
-138 -74 -66 -85 -73 -118 -70 l-37 3 -2 55 c-1 30 -7 150 -14 267 l-11 212
43 78 c23 43 60 107 82 142 63 104 153 291 176 365 30 97 27 206 -6 206 -8 0
-25 -24 -38 -54z m46 -20 c0 -30 -8 -81 -17 -113 -37 -130 -265 -560 -272
-514 -6 40 31 137 117 306 48 93 93 195 99 225 14 61 59 166 68 157 3 -3 6
-31 5 -61z"/>
<path d="M2393 4118 c-5 -79 -9 -144 -9 -144 1 -1 40 -5 87 -9 l86 -7 29 41
c32 44 39 46 112 30 50 -12 50 -12 58 -62 5 -28 14 -52 20 -54 12 -4 -35 289
-48 302 -3 3 -46 -49 -95 -117 -96 -134 -82 -125 -182 -112 l-43 6 7 134 c4
84 3 134 -3 134 -5 0 -13 -64 -19 -142z m342 -25 c8 -59 8 -59 -59 -42 l-44
11 41 59 c46 66 49 65 62 -28z"/>
<path d="M3016 3962 l-64 -129 64 -31 c70 -35 74 -36 74 -24 0 5 -23 19 -51
32 -28 13 -52 27 -55 32 -3 4 23 61 56 128 33 66 56 120 50 120 -5 0 -39 -58
-74 -128z"/>
<path d="M3276 3930 c-86 -27 -133 -140 -91 -220 32 -62 120 -87 189 -55 101
48 114 200 23 260 -31 20 -84 27 -121 15z m133 -56 c30 -33 33 -41 29 -84 -8
-79 -62 -130 -138 -130 -34 0 -48 6 -76 34 -28 28 -34 41 -34 79 0 54 31 105
80 130 51 26 97 16 139 -29z"/>
<path d="M1440 3894 c0 -3 19 -13 43 -24 58 -25 147 -35 191 -20 42 14 50 34
9 23 -47 -13 -166 -7 -205 10 -21 9 -38 14 -38 11z"/>
<path d="M3554 3680 c-79 -18 -132 -95 -118 -173 7 -42 74 -127 100 -127 7 0
-6 19 -30 43 -53 53 -64 97 -40 156 20 50 68 82 124 83 50 0 83 -21 112 -72
20 -35 38 -51 38 -35 0 32 -86 125 -115 125 -7 0 -19 2 -27 4 -7 2 -27 1 -44
-4z"/>
<path d="M2338 3560 l-33 -32 36 26 c47 34 76 34 91 -1 6 -16 14 -96 18 -179
6 -137 8 -155 32 -195 84 -145 99 -253 54 -373 -32 -85 -33 -130 -2 -209 50
-129 50 -134 -23 -288 -56 -118 -63 -235 -21 -367 39 -125 25 -150 -128 -224
-252 -121 -337 -216 -453 -502 -43 -106 -99 -166 -156 -166 -93 0 -125 101
-83 264 54 211 215 448 357 524 l58 31 55 -19 c65 -22 174 -34 213 -23 21 6
10 9 -45 10 -42 0 -98 9 -133 21 l-60 19 40 19 c30 14 64 19 132 19 65 0 87 3
75 10 -30 18 -143 10 -210 -14 l-63 -23 -52 34 c-45 29 -149 111 -198 158 -71
67 -192 210 -218 260 -18 34 -35 59 -38 57 -2 -3 15 -40 39 -82 52 -94 267
-318 370 -386 37 -24 68 -46 68 -49 0 -3 -24 -20 -54 -38 -283 -169 -495 -722
-311 -809 83 -40 177 32 235 177 64 163 87 200 184 295 72 72 114 103 206 154
195 109 217 134 206 224 -4 28 -11 58 -16 67 -16 29 -27 155 -20 222 5 40 20
93 43 143 20 44 56 133 80 199 24 65 52 127 61 137 26 31 55 24 73 -18 14 -36
14 -41 -17 -133 -38 -114 -47 -232 -18 -238 21 -4 50 51 68 128 7 30 14 61 16
67 2 9 20 2 53 -18 38 -24 50 -38 55 -64 9 -44 39 -81 86 -105 27 -14 40 -28
45 -49 6 -29 -7 -156 -26 -238 -5 -24 -14 -75 -19 -114 -12 -85 -52 -225 -80
-283 -39 -81 -82 -117 -344 -291 -240 -159 -738 -470 -817 -510 -19 -10 -79
-46 -134 -80 -330 -205 -492 -285 -582 -285 -47 0 -58 4 -92 35 -112 102 -319
769 -400 1290 -56 358 -72 726 -43 930 17 109 54 264 81 331 63 159 165 263
274 281 78 12 179 -45 222 -124 14 -27 24 -39 21 -28 -38 162 -65 224 -124
277 -50 45 -101 62 -164 55 -205 -25 -369 -245 -422 -567 -21 -128 -44 -458
-50 -715 -7 -274 0 -243 14 65 22 487 39 642 91 805 16 50 45 117 64 150 71
119 199 222 297 239 88 16 179 -38 227 -135 42 -85 40 -95 -14 -54 -185 141
-391 -5 -490 -350 -46 -161 -59 -278 -59 -535 0 -236 8 -351 45 -600 58 -386
180 -847 300 -1129 85 -199 121 -236 229 -235 60 0 79 6 166 48 167 80 425
230 829 481 429 267 777 495 823 539 24 22 56 68 72 101 52 106 133 495 128
610 -3 67 -4 70 -37 90 -55 32 -91 71 -98 105 -4 23 -17 39 -47 57 -23 14 -51
35 -63 46 l-22 20 -11 -27 c-5 -15 -10 -37 -10 -50 0 -31 -40 -146 -51 -146
-19 0 -8 101 21 195 34 111 36 134 15 175 -36 70 -91 43 -132 -65 -15 -41 -30
-75 -34 -75 -3 0 -18 44 -32 98 l-27 97 31 95 c44 134 39 192 -26 320 l-49 95
-12 157 c-14 179 -24 212 -71 216 -24 2 -39 -4 -65 -28z"/>
<path d="M3678 3377 c-76 -11 -135 -24 -132 -28 3 -5 29 -6 57 -3 58 7 59 6
97 -63 l23 -41 -32 -43 c-31 -43 -39 -64 -22 -57 9 3 191 244 191 253 0 8 -33
4 -182 -18z m142 -2 c0 -6 -81 -115 -85 -115 -5 0 -57 92 -53 95 1 1 30 7 63
12 33 6 63 11 68 12 4 0 7 -1 7 -4z"/>
<path d="M3862 3007 l-124 -32 7 -45 c16 -104 65 -160 142 -160 121 0 188 97
150 220 -10 31 -20 46 -33 47 -10 1 -74 -13 -142 -30z m157 -24 c32 -114 -25
-193 -138 -193 -53 0 -94 41 -111 110 -7 28 -10 53 -8 56 5 5 217 62 235 63 7
1 17 -16 22 -36z"/>
<path d="M1581 2838 c-2 -70 50 -180 112 -239 55 -52 161 -85 236 -72 45 7 44
8 -34 14 -50 4 -95 14 -120 26 -87 45 -156 141 -181 253 -11 51 -12 52 -13 18z"/>
<path d="M2038 2713 c-36 -6 -35 -24 4 -69 l32 -36 -27 -24 c-38 -33 -34 -41
6 -11 32 24 35 25 87 11 74 -19 89 -18 145 11 27 13 51 23 52 21 2 -2 1 -22
-3 -45 -18 -113 -117 -186 -254 -186 -41 0 -88 3 -105 8 -28 7 -27 6 5 -9 26
-12 56 -15 120 -12 126 6 186 43 229 138 23 51 29 135 9 127 -7 -3 -36 -15
-64 -28 -39 -17 -61 -20 -95 -15 -71 11 -75 17 -45 65 15 23 24 46 21 51 -6
10 -63 11 -117 3z m85 -44 c-30 -50 -38 -53 -67 -18 -14 17 -24 35 -20 40 3 5
28 9 55 9 l50 0 -18 -31z"/>
<path d="M1153 2489 c8 -293 40 -544 93 -728 14 -47 31 -96 39 -107 12 -19 10
-26 -21 -73 -71 -106 -123 -226 -169 -396 -34 -126 -78 -258 -116 -352 -44
-109 -62 -199 -50 -258 8 -43 30 -90 38 -82 2 3 -3 20 -12 37 -13 25 -16 51
-13 109 4 64 13 99 61 217 31 78 79 217 106 310 26 93 55 186 64 207 15 34
111 180 154 234 l18 21 60 -19 c115 -35 191 -128 183 -221 -6 -55 -26 -82 -98
-131 -108 -72 -143 -124 -166 -243 -8 -45 -32 -111 -59 -166 -29 -58 -45 -105
-45 -128 0 -90 -51 -184 -118 -220 -20 -10 -31 -19 -24 -20 7 0 33 13 57 30
54 37 92 111 101 195 4 40 20 89 49 150 24 50 50 125 59 167 20 89 44 130 106
175 166 120 180 139 161 231 -6 30 -21 70 -32 89 -27 43 -96 89 -166 109 -29
9 -53 20 -53 26 0 15 33 68 43 68 5 0 21 -8 35 -19 15 -10 56 -31 92 -46 36
-15 80 -36 98 -47 18 -11 35 -18 38 -15 6 5 -53 87 -147 202 -74 92 -136 189
-144 225 -7 33 1 70 16 70 5 0 38 -45 74 -99 81 -126 130 -181 161 -181 13 0
24 6 24 13 -1 27 -40 96 -94 162 -69 85 -119 186 -120 240 -1 63 22 50 89 -50
72 -109 147 -185 181 -185 47 0 22 71 -60 169 -24 30 -56 75 -70 101 -40 74
-49 192 -13 161 11 -8 17 -5 27 14 15 28 84 47 146 40 l39 -5 -35 10 c-46 13
-113 4 -142 -20 -13 -10 -35 -20 -48 -22 -21 -2 -26 -9 -28 -40 -6 -71 25
-142 114 -261 85 -113 93 -127 73 -127 -22 0 -65 43 -148 152 -100 129 -115
142 -137 113 -34 -44 15 -172 113 -295 76 -96 107 -147 94 -155 -17 -10 -95
70 -136 141 -50 86 -93 144 -104 144 -5 0 -17 -8 -26 -17 -14 -13 -16 -26 -10
-62 4 -25 8 -54 9 -64 1 -9 8 -23 14 -29 14 -14 16 -117 2 -138 -7 -12 -12 -7
-25 22 -8 21 -15 43 -15 49 0 7 -3 10 -6 6 -4 -3 1 -30 11 -59 18 -57 11 -100
-25 -147 l-17 -24 -21 64 c-54 166 -76 313 -91 619 -15 282 -22 359 -34 367
-7 4 -8 -64 -4 -208z m368 -728 c44 -52 79 -98 79 -102 0 -11 -92 25 -147 57
l-43 25 3 68 c2 82 -2 84 108 -48z"/>
<path d="M3905 2678 c-55 -5 -101 -11 -104 -13 -7 -7 11 -135 19 -135 4 0 6
26 3 58 l-6 59 48 6 c83 12 82 12 90 -43 9 -64 21 -65 17 -1 -3 43 -1 49 20
54 12 4 38 7 56 7 l32 0 0 -55 c0 -30 5 -55 10 -55 11 0 13 37 4 93 -6 36 -8
37 -48 36 -22 -1 -86 -6 -141 -11z"/>
<path d="M1870 2430 c8 -5 20 -10 25 -10 6 0 3 5 -5 10 -8 5 -19 10 -25 10 -5
0 -3 -5 5 -10z"/>
<path d="M3796 2288 c-4 -24 -9 -58 -12 -75 -4 -20 -2 -33 4 -33 6 0 14 27 18
60 4 33 10 62 13 65 4 2 65 -5 135 -16 115 -18 149 -19 135 -4 -4 3 -259 45
-279 45 -4 0 -10 -19 -14 -42z"/>
<path d="M3816 2110 c-64 -19 -101 -79 -94 -152 8 -79 68 -128 157 -128 42 0
56 5 85 30 85 75 66 194 -38 241 -45 20 -66 22 -110 9z m109 -33 c62 -30 86
-87 65 -152 -34 -104 -191 -98 -244 8 -17 36 -17 40 -1 83 28 73 104 99 180
61z"/>
<path d="M2405 1890 c10 -11 20 -20 23 -20 3 0 -3 9 -13 20 -10 11 -20 20 -23
20 -3 0 3 -9 13 -20z"/>
<path d="M3653 1825 c-30 -21 -55 -89 -43 -119 10 -27 38 -46 66 -46 10 0 47
12 82 26 52 21 70 24 89 15 31 -14 30 -51 -3 -91 -15 -17 -23 -34 -19 -38 9
-10 53 43 61 74 4 14 2 36 -4 49 -18 38 -54 41 -132 10 -72 -29 -103 -28 -120
5 -12 23 2 65 32 97 26 27 20 38 -9 18z"/>
<path d="M3394 1471 c-31 -19 -65 -60 -77 -92 -3 -11 11 -33 44 -65 27 -26 49
-42 49 -34 0 8 -18 33 -41 56 l-41 42 44 46 c41 42 49 46 92 46 86 0 141 -52
141 -134 0 -46 -3 -51 -54 -97 -60 -54 -49 -68 13 -17 40 32 66 80 66 120 0
38 -40 106 -74 128 -43 26 -120 27 -162 1z"/>
<path d="M3264 1313 c3 -21 9 -47 12 -59 4 -16 -5 -27 -49 -57 l-55 -36 -46
30 c-51 32 -56 33 -56 20 0 -10 246 -171 261 -171 6 0 8 8 5 18 -2 9 -17 79
-32 155 -15 75 -32 137 -37 137 -5 0 -7 -17 -3 -37z m29 -140 c4 -21 10 -53
13 -72 l7 -34 -63 43 -62 42 43 29 c24 16 47 29 50 29 4 0 9 -17 12 -37z"/>
<path d="M2967 1163 c-4 -6 18 -63 48 -126 30 -64 55 -118 55 -121 0 -3 -18
-15 -41 -26 -23 -12 -38 -24 -35 -27 3 -4 48 13 98 37 105 49 103 48 96 55 -3
3 -26 -3 -50 -14 l-46 -19 -59 125 c-33 70 -63 122 -66 116z"/>
<path d="M2672 1060 c-68 -42 -89 -117 -53 -196 58 -128 245 -101 268 39 20
123 -112 219 -215 157z m138 -20 c15 -11 35 -39 44 -62 38 -93 -15 -178 -111
-178 -35 0 -48 6 -77 35 -62 62 -56 173 13 210 38 21 98 18 131 -5z"/>
<path d="M2396 1009 c-53 -42 -30 -93 73 -161 28 -19 41 -35 41 -51 0 -35 -19
-47 -73 -47 -29 0 -46 -4 -42 -10 10 -16 88 -12 113 6 24 16 29 53 12 85 -6
10 -35 34 -64 53 -56 36 -72 61 -61 96 8 24 43 34 96 27 39 -5 53 5 23 17 -34
13 -92 6 -118 -15z"/>
<path d="M1038 473 c7 -3 16 -2 19 1 4 3 -2 6 -13 5 -11 0 -14 -3 -6 -6z"/>
</g>
</svg>
